<svg xmlns="http://www.w3.org/2000/svg" xmlns:xlink="http://www.w3.org/1999/xlink" viewBox="0 0 595.46 270.94"><defs><style>.cls-1{fill:none;}.cls-2{clip-path:url(#clip-path);}.cls-3{fill:#22222a;}</style><clipPath id="clip-path" transform="translate(-242.27 -404.53)"><rect class="cls-1" width="1080" height="1080"/></clipPath></defs><g id="katman_2" data-name="katman 2"><g id="katman_1-2" data-name="katman 1"><g class="cls-2"><path class="cls-3" d="M622.76,447.85a102.29,102.29,0,1,0,18.32,58.41,100.74,100.74,0,0,0-18.32-58.41m-96,13.75c11.31-13.92,21.61-8.7,21.61-8.7-15,5.85-20.4,16.73-20.4,16.73,7.83-11.89,21.17-15.76,21.17-15.76,2.9,6.82-1.89,14.11-1.89,14.11-3.25,5.71-9.69,9-11.41,9.86a4,4,0,0,1-.79.29,33.57,33.57,0,0,0-12.88,6.53c-2.85-15,4.59-23.06,4.59-23.06m-20.38,26.47c.79-11.15,7.92-12.17,7.92-12.17-5.56,8.35-4.43,15.84-4.43,15.84A26.21,26.21,0,0,1,515,476.11c3.92,2.45,4.09,7.88,4.09,7.88.38,4.08-1.72,8.09-2.3,9.12a2.63,2.63,0,0,1-.3.44,20.88,20.88,0,0,0-4.24,7.94c-6.82-6.63-5.91-13.42-5.91-13.42m5.18,38.85c-2-16.87,6.33-26.78,6.33-26.78,4.4-7.78,17.64-17.79,17.64-17.79a91,91,0,0,0,11.65-9.25c4.52-4.52,8.14-12.91,8.14-12.91,1.5,3.48-.44,14.31-.44,14.31s-2.27,14.11-13,21.31a84,84,0,0,0-17.55,15.81c-12.08,14.4-7.85,33.21-7.85,33.21-1.81-2.78-4.5-11.15-4.88-17.91m14.27-14.34s-5.92,38.47,32.55,44.47C525.3,570.22,506,544.62,525.8,512.58m45.46-8.87a24.68,24.68,0,0,0-3,1.55,2,2,0,0,0-.58,1.47s.41,1.74.85,2c0,0,1.33,2.07.33,3.11a3.32,3.32,0,0,1-3,1.48c-2.15,0-2.2.34-2.2.34a13.18,13.18,0,0,1,2.93.33,2.05,2.05,0,0,1,1.54,2.71c-.55,1.38-1.76,2.76-1.76,3.17a28.92,28.92,0,0,0,.94,3.09s1.74,4.66-2.17,7.42c-5.87,4.12-28.82-2.75-30.55-8.89,0,0-.92,4.68,14.16,9.37,0,0-8.75,4.16-2.56,19.62a43,43,0,0,1-13.79-13.85c-4.32-7.25-6.86-17.83-2.17-25.43,2.88-4.68,7.8-8.28,12.8-11.87,4.37-3.15,17.44-15.28,14.09-37.8,0,0,6.94,14.46,5.89,21.54,0,0-.22.47.3.25a2.41,2.41,0,0,0,.86-.59c.23-.25.36,0,.25.1s-.64.87-1.31.93c0,0-.08.13.2.16a2.48,2.48,0,0,0,1.64-.48c.15-.13.33-.07.23.16a3.78,3.78,0,0,1-2.57.66s-.68,1.92,3.35,6.41c1.1,1.23,2,2.39,3.06,3.62a22.9,22.9,0,0,0,3,3.05,5.77,5.77,0,0,1,1.39,2s1.06,2.23-2.27,4.35" transform="translate(-242.27 -404.53)"/><path class="cls-3" d="M381.6,647.25c0-.52-.56-.79-1.68-.79s-2.71.86-4.77,2.57a29.53,29.53,0,0,0-6.45,7.17,2.67,2.67,0,0,0,.86.13c1.66,0,3.89-.89,6.67-2.66s4.53-3.72,5.23-5.82a1.62,1.62,0,0,0,.14-.6m-12.44,19a4.14,4.14,0,0,1-1.31-.2q-4.22-1.18-4.21-4.73,0-4.6,5.79-10.66t10.39-6.05a3.65,3.65,0,0,1,2.47.82,2.57,2.57,0,0,1,.95,2q0,3.69-5.56,7t-9,3.36a2.84,2.84,0,0,1-.92-.13,7.57,7.57,0,0,0-1,3.75c0,2.28,1.08,3.42,3.26,3.42s5-1.47,8.45-4.41a42.11,42.11,0,0,0,6.84-6.84c.4-.53.73-.79,1-.79s.43.13.43.39a2.21,2.21,0,0,1-.53,1.12,40.59,40.59,0,0,1-8.55,8.29q-5,3.61-8.49,3.62m-17,0a4.14,4.14,0,0,1-1.31-.2q-4.22-1.18-4.21-4.73,0-4.6,5.78-10.66t10.4-6.05a3.6,3.6,0,0,1,2.46.82,2.79,2.79,0,0,1,1,2.24,6.11,6.11,0,0,1-.86,3,2.76,2.76,0,0,1-2.56,1.55q-1.71,0-1.71-1a5,5,0,0,1,.89-2.21,13.23,13.23,0,0,0,.88-1.57c0-.07-.06-.1-.19-.1q-1.85.19-5,2.63a22.06,22.06,0,0,0-4.37,4.08l-2.57,3.75a7.71,7.71,0,0,0-.95,2.5,11.65,11.65,0,0,0-.3,2.17,2.63,2.63,0,0,0,.83,1.64,2.92,2.92,0,0,0,2.33.92q3.28,0,8.16-3.84a42.69,42.69,0,0,0,7.5-7.34,1,1,0,0,1,.79-.4c.3,0,.46.09.46.27a1.18,1.18,0,0,1-.33.66,39.35,39.35,0,0,1-8.65,8.38c-3.36,2.39-6.15,3.59-8.39,3.59m-17.5-.13q-3.35,0-3.35-4.34,0-3.56,3.88-9.84t6.25-6.35a2.84,2.84,0,0,1,1.48.53c.55.35.82.7.82,1-.22.31-.48.65-.79,1s-.63.78-1,1.22-.83,1.06-1.44,1.87l-1.78,2.34q-4.93,6.38-4.93,8.78c0,1.6.54,2.4,1.64,2.4a7.76,7.76,0,0,0,3.75-1.51,33.27,33.27,0,0,0,8.75-7.5c.79-1,1.33-1.51,1.61-1.51s.43.17.43.52-.51,1-1.51,2.11l-2.4,2.5c-.6.61-1,1-1.22,1.21l-1.22,1.12a13.13,13.13,0,0,1-1.35,1.15l-1.31,1a8,8,0,0,1-1.52,1l-1.51.69a8.41,8.41,0,0,1-3.29.59M346.6,638.5a3.16,3.16,0,0,1,1.87.63,1.78,1.78,0,0,1,.89,1.48,1.82,1.82,0,0,1-.82,1.48,2.9,2.9,0,0,1-1.81.62,2.69,2.69,0,0,1-1.81-.72,2.14,2.14,0,0,1-.82-1.64c0-1.23.83-1.85,2.5-1.85m-30.19,6.06q1.77,0,1.77,1.38a1.81,1.81,0,0,1-.2.79q-5.91,8.22-7.1,12.43,15.33-15.33,18.62-15.33a3.28,3.28,0,0,1,.59-.06c1.22,0,1.84.54,1.84,1.64a1.94,1.94,0,0,1-.13.66q-.14.33-2.63,3.55a59,59,0,0,0-4.9,6.58,10.51,10.51,0,0,0-2,5.26c0,1.41.31,2.11.92,2.11q2.9,0,10.07-8c.08-.09.24-.29.46-.59.65-.79,1.05-1.19,1.18-1.19s.2.22.2.66a3,3,0,0,1-.92,1.71q-8.16,9.27-11.58,9.28-3.22,0-3.22-3.56a16.84,16.84,0,0,1,2.63-8.15l4.21-6.85a51.14,51.14,0,0,0-8,7.21q-3.5,3.92-6.35,7.6t-3.32,3.68a1.79,1.79,0,0,1-1.55-.82,3.57,3.57,0,0,1-.56-2,9.09,9.09,0,0,1,.86-3.26q.85-2,2.17-4.93l-3.95,4.14c-1,1-1.57,1.45-1.81,1.45s-.36-.14-.36-.43a1.47,1.47,0,0,1,.53-.95,56.64,56.64,0,0,0,4.21-4.67q1.71-2.24,7-8.55a1.63,1.63,0,0,1,1.26-.79m-11.71,2.69c0-.52-.56-.79-1.68-.79s-2.71.86-4.77,2.57a29.53,29.53,0,0,0-6.45,7.17,2.67,2.67,0,0,0,.86.13c1.66,0,3.89-.89,6.67-2.66s4.53-3.72,5.23-5.82a1.62,1.62,0,0,0,.14-.6m-12.44,19A4.14,4.14,0,0,1,291,666q-4.21-1.18-4.21-4.73,0-4.6,5.79-10.66t10.39-6.05a3.65,3.65,0,0,1,2.47.82,2.57,2.57,0,0,1,.95,2q0,3.69-5.56,7t-9,3.36a2.84,2.84,0,0,1-.92-.13,7.57,7.57,0,0,0-1,3.75c0,2.28,1.08,3.42,3.26,3.42s5-1.47,8.45-4.41a42.11,42.11,0,0,0,6.84-6.84c.4-.53.74-.79,1-.79s.43.13.43.39a2.21,2.21,0,0,1-.53,1.12,40.59,40.59,0,0,1-8.55,8.29q-5,3.61-8.49,3.62M262.6,646.53c.61,0,.92.72.92,2.17q0,3.28-3.26,6.15a11,11,0,0,1-7.46,2.86,11.08,11.08,0,0,1-5.2-1.31q-5.32-2.89-5.33-10.07A19.89,19.89,0,0,1,245,636.4,27.51,27.51,0,0,1,256,625.87,29.14,29.14,0,0,1,269.9,622a14,14,0,0,1,8.09,2.17,8.21,8.21,0,0,1,3.55,7.24q0,6.12-5.92,19.17t-5.92,14.77c0,.36.11.46.33.33q1.71-1.11,15.69-17.86t19.44-20.69a76,76,0,0,1,8.12-5.42,13.56,13.56,0,0,1,6.68-1.81,11.7,11.7,0,0,1,1.38.06,1.68,1.68,0,0,1,1.78,1.84c0,.57-.2.86-.6.86,0,0-.35-.1-.92-.3a4.74,4.74,0,0,0-1.45-.29q-9.19,0-24.79,16.64-5.87,6.25-14.25,16.84T271.21,667c-3.55,2-5.55,3-6,3-.14,0-.2-.21-.2-.65q0-2.18,3.68-11.06,1.52-3.42,4.41-10.26l3-8.88a22.59,22.59,0,0,0,1.58-6.51q0-4.54-2.63-6.91t-7.57-2.37q-4.93,0-10.59,3.49a25.71,25.71,0,0,0-9.14,9.74q-3,5.79-3,9.8a10.72,10.72,0,0,0,1.64,6.31,8.42,8.42,0,0,0,7.17,3.75,9,9,0,0,0,6.06-2.27,7.27,7.27,0,0,0,2.63-5.75,4.86,4.86,0,0,0-.17-1.32c-.11-.39.06-.59.5-.59" transform="translate(-242.27 -404.53)"/><path class="cls-3" d="M796.42,666.07q-3.36,0-3.36-4.35,0-3.54,3.89-9.83t6.25-6.35a2.84,2.84,0,0,1,1.48.53c.54.35.82.7.82,1-.22.31-.48.65-.79,1s-.64.78-1,1.22-.83,1.06-1.45,1.87l-1.77,2.34q-4.93,6.38-4.93,8.78c0,1.6.54,2.4,1.64,2.4a7.76,7.76,0,0,0,3.75-1.51,33.43,33.43,0,0,0,8.75-7.5c.79-1,1.33-1.51,1.61-1.51s.43.17.43.52-.51,1-1.52,2.11l-2.4,2.5c-.59.61-1,1-1.21,1.21l-1.22,1.12a14.58,14.58,0,0,1-1.35,1.15c-.31.22-.74.55-1.31,1a7.71,7.71,0,0,1-1.52.95l-1.51.7a8.41,8.41,0,0,1-3.29.59m11.91-27.57a3.16,3.16,0,0,1,1.87.63,1.71,1.71,0,0,1,.07,3,2.9,2.9,0,0,1-1.81.62,2.69,2.69,0,0,1-1.81-.72,2.14,2.14,0,0,1-.82-1.64c0-1.23.83-1.85,2.5-1.85m-27.7,23.55c0,1.32.73,2,2.17,2s3.31-.77,5.59-2.31a31,31,0,0,0,6.65-6.24c.53-.71.94-1.06,1.25-1.06s.46.13.46.4-.9,1.4-2.7,3.42q-6.57,7.23-11,7.24a6.46,6.46,0,0,1-3.69-1,3.53,3.53,0,0,1-1.51-3.15,13.73,13.73,0,0,1,1.12-5,87.42,87.42,0,0,1,6.12-11.25q7.7-12.5,10.92-12.5a2.38,2.38,0,0,1,1.35.5,1.55,1.55,0,0,1,.75,1.08L792.31,642q-4.3,5.79-5.95,8.32t-2.47,3.78c-.55.84-1,1.48-1.22,1.94s-.57,1.07-.92,1.81a9.41,9.41,0,0,0-1.12,4.21m-16,0c0,1.32.72,2,2.17,2s3.31-.77,5.59-2.31a31.15,31.15,0,0,0,6.64-6.24c.53-.71,1-1.06,1.25-1.06s.46.13.46.4-.89,1.4-2.69,3.42q-6.59,7.23-11,7.24a6.4,6.4,0,0,1-3.68-1,3.54,3.54,0,0,1-1.52-3.15,13.94,13.94,0,0,1,1.12-5,87.42,87.42,0,0,1,6.12-11.25q7.7-12.5,10.92-12.5a2.33,2.33,0,0,1,1.35.5,1.6,1.6,0,0,1,.76,1.08L776.32,642q-4.3,5.79-6,8.32t-2.47,3.78c-.55.84-.95,1.48-1.21,1.94s-.57,1.07-.92,1.81a9.41,9.41,0,0,0-1.12,4.21M761,647.25c0-.52-.56-.79-1.67-.79s-2.71.86-4.77,2.57a29.33,29.33,0,0,0-6.45,7.17,2.61,2.61,0,0,0,.85.13q2.51,0,6.68-2.66t5.23-5.82a1.59,1.59,0,0,0,.13-.6m-12.43,19a4.14,4.14,0,0,1-1.31-.2q-4.22-1.18-4.21-4.73,0-4.62,5.78-10.66t10.4-6.05a3.6,3.6,0,0,1,2.46.82,2.55,2.55,0,0,1,1,2q0,3.69-5.56,7t-9,3.36a3.21,3.21,0,0,1-.93-.13,7.66,7.66,0,0,0-1,3.75q0,3.42,3.25,3.42t8.46-4.41a42.52,42.52,0,0,0,6.84-6.84c.39-.53.73-.79,1-.79s.43.13.43.39a2.21,2.21,0,0,1-.53,1.12,40.59,40.59,0,0,1-8.55,8.29c-3.33,2.41-6.17,3.62-8.49,3.62m-24.34-3.55c-1.75,1.22-3,1.84-3.75,1.84-1,0-1.51-.55-1.51-1.65a3.62,3.62,0,0,1,.39-1.44c.27-.57.53-.86.79-.86s.49.33.27,1,.06,1,.59,1a3.54,3.54,0,0,0,1.91-.79l-2.5-1.9a.63.63,0,0,1-.14-.46q0-.33.66-1a1.87,1.87,0,0,1,1-.62,14.79,14.79,0,0,1,3.19,2.23q8.16-9.21,12-12.1a29.87,29.87,0,0,0-7.69-1.58,8.7,8.7,0,0,0-1.38.1,2.89,2.89,0,0,0-1.42.79,2.05,2.05,0,0,0-.75,1.54,1.71,1.71,0,0,0,.72,1.42c.48.37.72.67.72.89s-.16.33-.49.33-.87-.44-1.61-1.32a4.29,4.29,0,0,1-1-2.7c0-1.53,1.11-2.54,3.35-3a19.74,19.74,0,0,1,3.62-.33c1.23,0,4.25.79,9.08,2.37a3.91,3.91,0,0,1,2-.53c1.84,0,2.76.55,2.76,1.64a1.52,1.52,0,0,1-.85,1.22,3.67,3.67,0,0,1-2,.56,5,5,0,0,1-2.17-.46q-6.26,3.88-13.42,12.24l2.36,1.84a11.78,11.78,0,0,0,6.58,1.84,10.17,10.17,0,0,0,5.53-1.18,3.55,3.55,0,0,0,1.78-3,4,4,0,0,0-.33-1.61c-.22-.5,0-.76.59-.76.22,0,.44.26.66.76a4.5,4.5,0,0,1,.33,1.81,5.12,5.12,0,0,1-2.5,4.34,11.21,11.21,0,0,1-6.45,1.71,14.06,14.06,0,0,1-7.17-1.65,30.18,30.18,0,0,1-3.62-2.49m-8.09-22c-.26,0-.52-.18-.76-.56A2.08,2.08,0,0,1,715,639c0-.39.53-1,1.58-1.74a5.27,5.27,0,0,1,2.07-1.15,1.3,1.3,0,0,1,.56.06v.07a7.4,7.4,0,0,1-.79.92l-.85,2.11c-.44,1-.92,1.44-1.45,1.44m-6.45,0c-.26,0-.52-.18-.79-.56a2,2,0,0,1-.39-1.15c0-.39.54-1,1.61-1.74a5,5,0,0,1,2.47-1.15.19.19,0,0,1,.13.06v-.06a.19.19,0,0,1,.06.13,8.33,8.33,0,0,1-.78.92l-.92,2.11c-.4,1-.86,1.44-1.39,1.44m.6,25.07a10.18,10.18,0,0,1-1.42.06,3.5,3.5,0,0,1-2.17-.85,2.7,2.7,0,0,1-1.08-2.21,10.45,10.45,0,0,1,.49-3c.33-1.1.56-1.93.69-2.5L701,663q-3.42,3-6.08,3T692,662.71v-.39q0-2.7,3.22-7.3L692,657.91a1.11,1.11,0,0,1-.72.39q-.33,0-.33-.36c0-.24.22-.58.65-1l8.69-10.19a4.9,4.9,0,0,1,3.52-2c1.16,0,1.74.4,1.74,1.19a1.2,1.2,0,0,1-.39.85,53.49,53.49,0,0,0-6.62,8.09q-4,5.65-4,8.36c0,.79.27,1.18.79,1.18.83,0,2.33-.83,4.48-2.5l3.55-3q1-.78,6.71-8,5.13-6.39,6.71-6.38c1.58,0,2.37.61,2.37,1.84q0,.66-2.77,3.81-3.75,4.54-5.72,7.4t-2,4.64c0,1.18.33,1.78,1,1.78a2.63,2.63,0,0,0,1.06-.27q4.72-2.1,10.85-9.07a1.07,1.07,0,0,1,.79-.46c.26,0,.39.11.39.32q0,1.32-6.64,7.17-4.27,3.69-5.85,4m-36.84-32.43-.13,2.1q0,4.27,4.6,4.28a13.72,13.72,0,0,0,7.7-2.63c2.58-1.76,3.88-3.53,3.88-5.33s-1.06-3.31-3.16-4.54c-1.4-.83-3.6-1.25-6.58-1.25a41.59,41.59,0,0,0-14.83,3.16,45.5,45.5,0,0,0-15.36,10.13q-9.4,9.21-9.41,16.9a8.86,8.86,0,0,0,3.46,7.3,14,14,0,0,0,9,2.77q7.75,0,18-5.86,8.57-4.8,12.83-10.19l1.91-2.83q-1.18,0-9.8.69t-9.87,1a9.59,9.59,0,0,1-2,.29c-1.45,0-2.17-.35-2.17-1q0-1.65,5-2.73t16.91-1.09c7.93,0,13.18.31,15.72.92.39.09.59.2.59.33,0,.49-1.51.84-4.54,1.06l-5.79.46Q682.69,656,672,674.42c-.39.7-.77,1.05-1.15,1.05s-.56-.28-.56-.85q0-2.31,3.69-8.88l4.6-8.62a49.39,49.39,0,0,1-10.72,6.77,37.55,37.55,0,0,1-16,4q-7.53,0-11.51-3.26a10.68,10.68,0,0,1-4-8.71q0-10.07,12.17-20.46a52.29,52.29,0,0,1,14.8-8.75q8.68-3.5,15.23-3.49t10,2.57a6,6,0,0,1,2.7,4.73q0,3.75-4.64,7.21a15.37,15.37,0,0,1-9.17,3.45q-6.12,0-6.12-7c0-1.8.37-2.69,1.12-2.69s.92.61.92,1.84m-50.2,13.94c0-.52-.55-.79-1.67-.79s-2.71.86-4.77,2.57a29.33,29.33,0,0,0-6.45,7.17,2.67,2.67,0,0,0,.86.13c1.66,0,3.89-.89,6.67-2.66s4.53-3.72,5.23-5.82a1.59,1.59,0,0,0,.13-.6m-12.43,19a4.14,4.14,0,0,1-1.31-.2q-4.22-1.18-4.21-4.73,0-4.62,5.78-10.66t10.4-6.05a3.65,3.65,0,0,1,2.47.82,2.57,2.57,0,0,1,1,2q0,3.69-5.56,7t-9,3.36a3.14,3.14,0,0,1-.92-.13,7.57,7.57,0,0,0-1,3.75q0,3.42,3.25,3.42c2.18,0,5-1.47,8.46-4.41a42.52,42.52,0,0,0,6.84-6.84c.39-.53.73-.79,1-.79s.43.13.43.39a2.21,2.21,0,0,1-.53,1.12,40.59,40.59,0,0,1-8.55,8.29q-5,3.61-8.49,3.62m-5.26-26.71a4.66,4.66,0,0,1,3.35,1.32,4.83,4.83,0,0,1,1.38,3.68q0,5.19-8.61,13-7.3,6.57-11.78,8a3.73,3.73,0,0,1-1.9-.79c-.79-.52-1.19-1-1.19-1.45q0-1.44,3.16-9.8t4.34-9.34a1.19,1.19,0,0,1,.86-.26,1.92,1.92,0,0,1,1.25.62,2.29,2.29,0,0,1,.72,1.48s-1.09,2.59-3.26,7.63-3.19,8-3.06,9q2.84-.85,10.1-6.91t7.27-10.86a4.38,4.38,0,0,0-2.89-4.21.62.62,0,0,1-.46-.59c0-.39.24-.59.72-.59M571.64,646a1.47,1.47,0,0,0-.59-1,1.88,1.88,0,0,0-1.25-.53q-3.56,0-8.52,3t-6.08,6.71c.39,0,1.44.07,3.15.2,2,0,4.56-.81,7.77-2.43,3.68-1.84,5.52-3.8,5.52-5.86m-9.47,20.13c-3.47,0-6.4-2.74-8.82-8.22q-.92,1.38-4.14,7.76c-1.58-.61-2.37-1.44-2.37-2.5q0-2.82,8.49-15.52T567,632.71a2,2,0,0,1,1-.19q2,0,2,1.05,0,.52-4.57,5.92a55.17,55.17,0,0,0-5.1,6.51q6-3.09,9.54-3.09a4.49,4.49,0,0,1,3.49,1.65,4,4,0,0,1,1.38,2.82v.4c-.35,2.5-2.11,4.56-5.26,6.18a15.21,15.21,0,0,1-7.11,2,8.94,8.94,0,0,1-4.6-.85.64.64,0,0,0-.63.19.66.66,0,0,0-.1.66q1.85,8.16,6.12,8.16,2.24,0,5.76-2.5a40.77,40.77,0,0,0,7.33-7,1.26,1.26,0,0,1,.82-.46.32.32,0,0,1,.36.36,2.09,2.09,0,0,1-.45,1,45.1,45.1,0,0,1-6.71,6.84c-3.21,2.5-5.92,3.75-8.16,3.75m-26-.06q-3.36,0-3.36-4.35,0-3.54,3.88-9.83t6.25-6.35a2.84,2.84,0,0,1,1.48.53c.55.35.82.7.82,1-.22.31-.48.65-.79,1l-1,1.22c-.36.43-.84,1.06-1.45,1.87l-1.78,2.34q-4.93,6.38-4.93,8.78c0,1.6.55,2.4,1.64,2.4a7.76,7.76,0,0,0,3.75-1.51,33.27,33.27,0,0,0,8.75-7.5c.79-1,1.33-1.51,1.61-1.51s.43.17.43.52-.5,1-1.51,2.11l-2.4,2.5c-.6.61-1,1-1.22,1.21l-1.22,1.12a14.58,14.58,0,0,1-1.35,1.15l-1.31,1a7.68,7.68,0,0,1-1.51.95l-1.52.7a8.36,8.36,0,0,1-3.28.59m11.9-27.57a3.16,3.16,0,0,1,1.87.63,1.78,1.78,0,0,1,.89,1.48,1.82,1.82,0,0,1-.82,1.48,2.9,2.9,0,0,1-1.81.62,2.69,2.69,0,0,1-1.81-.72,2.17,2.17,0,0,1-.82-1.64c0-1.23.83-1.85,2.5-1.85m-16.64,5.66,9.47-.13c.13.09.2.15.2.2q0,.59-8.19,1.64t-8.85,1.25c-.83.75-2.37,3-4.61,6.68s-3.35,6.41-3.35,8.12,1.12,2.44,3.35,2.44a12.21,12.21,0,0,0,4.15-1,24.74,24.74,0,0,0,4-1.84,41.6,41.6,0,0,0,7.89-6.78c.61-.61,1-.92,1.25-.92s.2.13.2.4a3.73,3.73,0,0,1-1,1.57,29.24,29.24,0,0,1-7.7,6.78,18.81,18.81,0,0,1-9.8,3.16,5.73,5.73,0,0,1-3.32-.89c-.85-.59-1.28-1.79-1.28-3.58s.79-4.27,2.37-7.41,2.78-5.47,3.62-7a8,8,0,0,1-1.58.2c-1.28,0-1.91-.51-1.91-1.52,0-.74.53-1.27,1.58-1.58a4.28,4.28,0,0,0,.59-.06h3.81q1.19-1.51,2.7-3.49c1.23-1.58,2.06-2.37,2.5-2.37a3.75,3.75,0,0,1,1.65.53c.65.35,1,.77,1,1.25s-1,1.91-3.15,4.27c1.14,0,2.63.07,4.47.07m-18.29,3.09c0-.52-.56-.79-1.68-.79s-2.7.86-4.77,2.57a29.27,29.27,0,0,0-6.44,7.17,2.61,2.61,0,0,0,.85.13q2.5,0,6.68-2.66c2.78-1.78,4.53-3.72,5.23-5.82a1.59,1.59,0,0,0,.13-.6m-12.43,19a4.25,4.25,0,0,1-1.32-.2c-2.8-.79-4.21-2.37-4.21-4.73q0-4.62,5.79-10.66t10.4-6.05a3.62,3.62,0,0,1,2.46.82,2.55,2.55,0,0,1,1,2q0,3.69-5.56,7t-9.05,3.36a3.19,3.19,0,0,1-.92-.13,7.57,7.57,0,0,0-1,3.75q0,3.42,3.26,3.42t8.45-4.41a42.19,42.19,0,0,0,6.85-6.84c.39-.53.73-.79,1-.79s.43.13.43.39a2.17,2.17,0,0,1-.52,1.12,40.41,40.41,0,0,1-8.56,8.29q-5,3.61-8.48,3.62m-5.72-22,9.47-.13c.13.09.2.15.2.2q0,.59-8.19,1.64t-8.85,1.25c-.84.75-2.37,3-4.61,6.68s-3.35,6.41-3.35,8.12,1.12,2.44,3.35,2.44a12.26,12.26,0,0,0,4.15-1,24.57,24.57,0,0,0,3.94-1.84,41.62,41.62,0,0,0,7.9-6.78c.61-.61,1-.92,1.25-.92s.19.13.19.4a3.67,3.67,0,0,1-1,1.57,29.4,29.4,0,0,1-7.7,6.78,18.84,18.84,0,0,1-9.8,3.16,5.71,5.71,0,0,1-3.32-.89c-.86-.59-1.28-1.79-1.28-3.58s.79-4.27,2.36-7.41,2.79-5.47,3.62-7a7.82,7.82,0,0,1-1.58.2c-1.27,0-1.9-.51-1.9-1.52,0-.74.52-1.27,1.58-1.58a4.59,4.59,0,0,0,.59-.06h3.81q1.18-1.51,2.7-3.49c1.23-1.58,2.06-2.37,2.5-2.37a3.71,3.71,0,0,1,1.64.53c.66.35,1,.77,1,1.25s-1.05,1.91-3.16,4.27c1.14,0,2.63.07,4.48.07m-37.57,12.89a4.88,4.88,0,0,0,1.48,3.66,5.11,5.11,0,0,0,6.15.69c.88-.49,1.75-2.5,2.6-6.06a56.25,56.25,0,0,0,1.55-9.4l.26-2.24a64.42,64.42,0,0,0-7.73,7q-4.11,4.27-4.24,5.66a4.85,4.85,0,0,0-.07.72m8.88,7.31a9.18,9.18,0,0,1-4.7,1.12,5.18,5.18,0,0,1-4.28-1.85,16.17,16.17,0,0,1-2.53-5.85c-.79.79-1.34,1.18-1.64,1.18s-.33-.15-.33-.46a1.07,1.07,0,0,1,.33-.79,99.59,99.59,0,0,1,7.36-7.76l8.29-7.76c2.37-2.24,3.78-3.36,4.21-3.36,1.41,0,2.11.53,2.11,1.58a2.42,2.42,0,0,1-.63,1.55c-.41.5-.72.9-.92,1.18a8.39,8.39,0,0,1-.62.82q-1.19,2-2.4,8.42t-1.88,8.89q5.46-.07,11.25-7.11.66-.66,1-.66c.22,0,.33.14.33.43a2.14,2.14,0,0,1-.59,1.15,26.67,26.67,0,0,1-7.11,6.25,21.19,21.19,0,0,1-5.13,1.65ZM435,640.94a10.22,10.22,0,0,0,6.51,2.23c2.46,0,3.69-.68,3.69-2,0-.62-1.1-.93-3.29-.93a34.73,34.73,0,0,0-6.91.73m6.91-2.37q6.45,0,6.45,2.43a2.43,2.43,0,0,1-.4,1.19q-1.58,2.43-5.72,2.43a17.43,17.43,0,0,1-5.53-1,16.46,16.46,0,0,1-4.27-2,32.62,32.62,0,0,0-10.89,5.46,24.76,24.76,0,0,0-7.14,8.36,10.87,10.87,0,0,0-1.25,4.86,7.17,7.17,0,0,0,3.06,6q3.06,2.29,9,2.3a29,29,0,0,0,3.42-.2q10.46-1.11,16.64-6.71,5.21-4.61,5.2-9.66,0-4-3.88-4-4.66,0-10.72,5a10.76,10.76,0,0,0-2.57,3.16,7.73,7.73,0,0,0-1.05,3.75,2.17,2.17,0,0,0,1.84,2.3q.66.27.66.66c0,.44-.44.61-1.32.52q-3.15-.06-3.15-4.14t4.14-7.63q5.65-4.87,12-4.87c3.16,0,5.15,1,6,3a7.71,7.71,0,0,1,.52,2.76q0,6.12-6.77,11.52-8.1,6.57-20.53,6.57-7.69,0-12.17-2.86T409,660.28a10,10,0,0,1,1.71-5.4q6.06-9.6,20.66-14.27a8,8,0,0,1-2.17-5.33,7.87,7.87,0,0,1,1.38-4.74,19.41,19.41,0,0,1,8.09-6,31.81,31.81,0,0,1,12.89-2.83,12.76,12.76,0,0,1,6,1.22,4,4,0,0,1,2.27,3.75,5.59,5.59,0,0,1-1.87,4.27,5.7,5.7,0,0,1-3.92,1.75q-2,0-2-1c0-.39.29-.59.86-.59l1.31.2a3.06,3.06,0,0,0,2.41-1.42,4.76,4.76,0,0,0,1.08-2.92c0-1.5-.86-2.59-2.56-3.29A8.36,8.36,0,0,0,452,623q-1.44,0-2,.06a22,22,0,0,0-11.05,4q-6.31,4.14-6.31,9.34a5.64,5.64,0,0,0,1.31,3.56,26.89,26.89,0,0,1,8-1.32" transform="translate(-242.27 -404.53)"/><path class="cls-3" d="M831.88,646a1.47,1.47,0,0,0-.59-1,1.88,1.88,0,0,0-1.26-.53q-3.54,0-8.51,3t-6.09,6.71c.4,0,1.45.07,3.16.2q3,0,7.76-2.43c3.68-1.84,5.53-3.8,5.53-5.86m-9.47,20.13q-5.2,0-8.82-8.22c-.61.92-2,3.51-4.14,7.76-1.58-.61-2.37-1.44-2.37-2.5q0-2.82,8.48-15.52t11.65-14.94a1.91,1.91,0,0,1,1-.19q2,0,2,1.05c0,.35-1.53,2.32-4.57,5.92a55.17,55.17,0,0,0-5.1,6.51q6-3.09,9.54-3.09a4.46,4.46,0,0,1,3.48,1.65,4,4,0,0,1,1.39,2.82v.4c-.36,2.5-2.11,4.56-5.27,6.18a15.18,15.18,0,0,1-7.1,2,9,9,0,0,1-4.61-.85.62.62,0,0,0-.72.85q1.85,8.16,6.12,8.16,2.24,0,5.75-2.5a40.47,40.47,0,0,0,7.34-7,1.26,1.26,0,0,1,.82-.46.32.32,0,0,1,.36.36,2,2,0,0,1-.46,1,44.64,44.64,0,0,1-6.71,6.84q-4.8,3.75-8.15,3.75" transform="translate(-242.27 -404.53)"/></g></g></g></svg>